Coordinates
version=1
nRows=26
nColumns=24
inDegrees=yes

Units are S.I. units (second, meters, Newtons, ...)
Angles are in degrees.

endheader
time	pelvis_tilt	pelvis_list	pelvis_rotation	pelvis_tx	pelvis_ty	pelvis_tz	hip_flexion_r	hip_adduction_r	hip_rotation_r	knee_angle_r	ankle_angle_r	subtalar_angle_r	mtp_angle_r	hip_flexion_l	hip_adduction_l	hip_rotation_l	knee_angle_l	ankle_angle_l	subtalar_angle_l	mtp_angle_l	lumbar_extension	lumbar_bending	lumbar_rotation
      1.24500000	     14.09493496	     -0.51958534	     -1.06471756	     -0.69618821	      0.93902279	     -0.00996665	    -30.03924088	      3.51614186	     -8.65531549	    -10.09844094	     26.18542470	     -1.29978641	     18.97910691	     -0.82621691	      2.96670207	    -16.31081009	      8.55457758	      3.63482716	     -2.13810428	     37.42430844	    -23.18116061	     -0.64361544	      1.65395218
      1.25000000	     14.07258921	     -0.34214330	     -1.26988482	     -0.69026187	      0.93842665	     -0.00995018	    -30.25370873	      3.17270180	     -8.63768122	    -10.41262784	     26.33603294	     -0.95346208	     17.97436159	     -0.75152816	      3.15208878	    -16.14866441	      8.12547477	      3.15220945	     -2.83811628	     38.40574084	    -23.12735882	     -0.94931710	      1.75281566
      1.25500000	     14.14899137	     -0.13191843	     -1.52555623	     -0.68430180	      0.93804134	     -0.00986533	    -30.55956236	      2.76876597	     -8.58314220	    -10.73779268	     26.32756475	     -0.73906360	     18.08951260	     -0.76994977	      3.37255535	    -16.17396398	      7.58999991	      2.77412966	     -3.20056002	     38.45138590	    -23.17962066	     -1.31193771	      1.90364779
      1.26000000	     14.20150744	      0.11485837	     -1.70828461	     -0.67829903	      0.93766641	     -0.00991084	    -30.83514000	      2.35448434	     -8.66573552	    -11.07473429	     26.26350705	     -0.40284950	     18.49482126	     -0.76457192	      3.62102831	    -15.91218492	      7.01098404	      2.30021331	     -4.01702924	     38.67148899	    -23.20249291	     -1.68889547	      1.97501305
      1.26500000	     14.19588964	      0.36449506	     -1.88153839	     -0.67235952	      0.93731420	     -0.00996785	    -31.00218911	      1.94243664	     -8.67915563	    -11.48623092	     26.15766140	     -0.20028018	     19.18151836	     -0.67075793	      3.85999566	    -15.60146005	      6.35404752	      1.72544739	     -4.95978802	     39.07514741	    -23.17222418	     -2.06533665	      2.02705309
      1.27000000	     14.18783812	      0.63863817	     -2.03269924	     -0.66641317	      0.93703472	     -0.01005658	    -31.13622719	      1.51569582	     -8.67726288	    -11.95166377	     25.99384772	     -0.05967675	     20.11566533	     -0.56872503	      4.12190304	    -15.26014287	      5.65793914	      1.10449106	     -5.93115527	     39.60874897	    -23.14042552	     -2.46139024	      2.01407700
      1.27500000	     14.16238456	      0.92127004	     -2.17654255	     -0.66047126	      0.93682597	     -0.01018086	    -31.21053249	      1.07665501	     -8.69285636	    -12.48718972	     25.75725806	      0.05064243	     21.15621329	     -0.43344601	      4.38909393	    -14.90872043	      4.90510483	      0.49595159	     -6.91182833	     40.13574335	    -23.09260476	     -2.86326380	      2.03428316
      1.28000000	     14.11423531	      1.20984016	     -2.30249140	     -0.65454108	      0.93667628	     -0.01032844	    -31.22545792	      0.63948935	     -8.67039688	    -13.07846681	     25.46037639	      0.10398815	     22.31357100	     -0.26147373	      4.65839553	    -14.52503442	      4.10643179	     -0.08482352	     -7.92410372	     40.62961857	    -23.02341065	     -3.26676690	      2.02901147
      1.28500000	     14.04204126	      1.49627640	     -2.41789069	     -0.64864385	      0.93657852	     -0.01052927	    -31.15385500	      0.19747165	     -8.63454541	    -13.78278762	     25.16897264	      0.20430089	     23.32203278	     -0.04921971	      4.92469462	    -14.11361108	      3.25752070	     -0.55600695	     -8.93804105	     40.91836201	    -22.93381173	     -3.65992632	      2.01270845
      1.29000000	     14.01420123	      1.77622252	     -2.56052423	     -0.64273710	      0.93663384	     -0.01069746	    -31.10248375	     -0.25171854	     -8.50227786	    -14.50960488	     24.68136792	      0.13776213	     25.43089504	      0.10201558	      5.19285565	    -13.77431689	      2.41815297	     -1.02366240	     -9.95901285	     41.51507359	    -22.89199857	     -4.05761575	      2.02702694
      1.29500000	     13.85866324	      2.06652625	     -2.57110218	     -0.63691217	      0.93657077	     -0.01108702	    -30.82739422	     -0.66205873	     -8.52915213	    -15.42725665	     24.35019918	      0.24708211	     26.10109349	      0.44020755	      5.45928724	    -13.23563060	      1.46922649	     -1.32019303	    -10.91876715	     41.50185404	    -22.72977159	     -4.41461624	      1.92620618
      1.30000000	     13.70990827	      2.33827067	     -2.58231386	     -0.63113210	      0.93658918	     -0.01151641	    -30.50171404	     -1.06329326	     -8.49095852	    -16.43710217	     23.92006545	      0.27775783	     27.26125373	      0.76166673	      5.71762889	    -12.66696241	      0.52808280	     -1.57336203	    -11.97086271	     41.46065912	    -22.58364539	     -4.74791910	      1.82786973
      1.30500000	     13.60874562	      2.60315458	     -2.66146745	     -0.62527727	      0.93676715	     -0.01188737	    -30.18376858	     -1.50066340	     -8.35949717	    -17.49697814	     23.24246739	      0.19590465	     29.71681143	      0.98549972	      5.98694435	    -12.24070059	     -0.34352726	     -1.78930286	    -12.94230238	     41.38562819	    -22.47571830	     -5.09587518	      1.81358608
      1.31000000	     13.38174857	      2.81578434	     -2.63483933	     -0.61958019	      0.93682006	     -0.01238929	    -29.62777771	     -1.84695357	     -8.26777376	    -18.76108540	     22.74817818	      0.31801679	     30.41444099	      1.43513624	      6.17787183	    -11.83653425	     -1.40725334	     -1.68944610	    -13.55058338	     41.28767266	    -22.25946738	     -5.34954417	      1.70039470
      1.31500000	     13.24919684	      3.06566383	     -2.62751500	     -0.61381251	      0.93705123	     -0.01293468	    -29.13414725	     -2.25110187	     -8.18994057	    -20.06738322	     21.93105410	      0.14731418	     33.58297091	      1.69087009	      6.44106003	    -11.36572984	     -2.30223800	     -1.66972505	    -14.25395514	     40.77989171	    -22.13650441	     -5.64547973	      1.61077511
      1.32000000	     12.97877093	      3.24353796	     -2.59637188	     -0.60817319	      0.93714174	     -0.01353157	    -28.38065660	     -2.58364610	     -8.02607445	    -21.58145242	     21.28624363	      0.20836571	     34.21645105	      2.13409289	      6.61919357	    -10.93154366	     -3.27501028	     -1.47296617	    -14.87969792	     40.58667295	    -21.88214500	     -5.85046239	      1.51881936
      1.32500000	     12.80227190	      3.45185814	     -2.58404578	     -0.60248787	      0.93739419	     -0.01416536	    -27.67834377	     -2.96820748	     -7.87979403	    -23.14708249	     20.34900450	      0.01161177	     37.35475499	      2.39485885	      6.85907100	    -10.46903611	     -4.10115507	     -1.30974813	    -15.52276406	     39.70514551	    -21.72125316	     -6.08877073	      1.43600740
      1.33000000	     12.52271807	      3.60934075	     -2.55516154	     -0.59690745	      0.93754443	     -0.01482463	    -26.76345582	     -3.30384719	     -7.68665401	    -24.88243934	     19.40580522	     -0.08556549	     39.37579346	      2.80068855	      7.03271051	    -10.14314968	     -4.99989424	     -0.94416471	    -15.86199140	     38.93671244	    -21.46101491	     -6.26390031	      1.35747030
      1.33500000	     12.23833863	      3.75548429	     -2.53326216	     -0.59135866	      0.93769912	     -0.01551006	    -25.76759967	     -3.64377577	     -7.48526866	    -26.72724236	     18.37307240	     -0.17484694	     41.35053603	      3.17434924	      7.20331204	     -9.82944616	     -5.82934595	     -0.52834214	    -16.13790629	     38.13904477	    -21.19718528	     -6.42415594	      1.28621398
      1.34000000	     11.89450626	      3.86956994	     -2.50998553	     -0.58587563	      0.93775235	     -0.01623283	    -24.62265922	     -3.96122689	     -7.24066695	    -28.71306534	     17.44266812	     -0.04680278	     42.09471946	      3.60150451	      7.34011823	     -9.57424546	     -6.63909253	      0.01635991	    -16.32331345	     37.89540971	    -20.87202294	     -6.54162893	      1.23530372
      1.34500000	     11.61547918	      4.02214703	     -2.52455095	     -0.58040700	      0.93792461	     -0.01690959	    -23.50067970	     -4.32834827	     -6.97783006	    -30.70833480	     16.14988029	     -0.35040610	     45.42359847	      3.89901901	      7.53257954	     -9.35577360	     -7.33321235	      0.52905950	    -16.46157038	     36.41939332	    -20.61437518	     -6.71513835	      1.20740637
      1.35000000	     11.20144147	      4.14302726	     -2.50334780	     -0.57501971	      0.93789169	     -0.01764064	    -22.14808343	     -4.65163013	     -6.70320851	    -32.84973630	     14.97059265	     -0.40297069	     46.32311941	      4.34309551	      7.67934343	     -9.16129821	     -8.02333241	      1.11208359	    -16.44274021	     35.91741178	    -20.21599098	     -6.83603876	      1.14871526
      1.35500000	     10.88820990	      4.24970326	     -2.58645108	     -0.56966700	      0.93800914	     -0.01824721	    -20.85232634	     -4.99853430	     -6.32834467	    -34.98782148	     13.57134601	     -0.56739146	     48.86944929	      4.62013812	      7.81963967	     -9.13441451	     -8.59772157	      1.72554087	    -16.39267213	     34.31904342	    -19.92112339	     -6.97116883	      1.19818921
      1.36000000	     10.47157134	      4.35823169	     -2.63503031	     -0.56439349	      0.93794643	     -0.01889553	    -19.38418581	     -5.32809290	     -5.97026139	    -37.21939745	     12.30428496	     -0.54856825	     49.28187753	      5.01147024	      7.95154014	     -9.12108323	     -9.16204988	      2.28583574	    -16.32616738	     34.04213262	    -19.51807813	     -7.09318999	      1.21799367
      1.36500000	     10.10420448	      4.48364055	     -2.70525703	     -0.55909634	      0.93795410	     -0.01949198	    -17.96489454	     -5.66095445	     -5.58589417	    -39.37638458	     10.83666961	     -0.84949107	     51.35786318	      5.29052425	      8.10892478	     -9.11517506	     -9.62589348	      2.99716605	    -16.11577079	     32.14527275	    -19.16147010	     -7.24099185	      1.23058584
      1.37000000	      9.75503060	      4.62575558	     -2.85518610	     -0.55383647	      0.93795271	     -0.01996950	    -16.50598159	     -6.02587434	     -5.12889055	    -41.58723111	      9.55642855	     -0.93254298	     51.47323247	      5.50484552	      8.27746703	     -9.25684695	     -9.97065555	      3.54480726	    -16.00929558	     31.99509247	    -18.81498002	     -7.42906391	      1.33129897
